<svg width="17" height="12" viewBox="0 0 17 12" fill="none" xmlns="http://www.w3.org/2000/svg">
<path d="M8.67785 10.2862C5.02812 10.3719 2.63457 7.21003 1.88765 6.00183C2.41939 5.14554 3.05842 4.36215 3.78891 3.67111L2.5497 2.46291C1.59171 3.37417 0.771013 4.42211 0.113714 5.57339C0.0392188 5.70365 0 5.85141 0 6.00183C0 6.15224 0.0392188 6.30001 0.113714 6.43027C0.648442 7.36427 3.50881 12 8.5081 12H8.72029C9.66035 11.9718 10.5882 11.7775 11.4618 11.4259L10.1208 10.072C9.64916 10.1973 9.16521 10.2691 8.67785 10.2862ZM16.8685 5.57339C16.3253 4.62225 13.3291 -0.150583 8.26195 0.00365552C7.32189 0.0318073 6.394 0.226119 5.52041 0.577766L6.86147 1.93164C7.33308 1.80639 7.81703 1.73454 8.30439 1.71742C11.9456 1.62316 14.3392 4.79362 15.0946 6.00183C14.5497 6.86067 13.8963 7.64418 13.1509 8.33255L14.4325 9.54075C15.4026 8.63188 16.2348 7.58382 16.9025 6.43027C16.9719 6.29702 17.0053 6.14766 16.9993 5.99723C16.9934 5.8468 16.9482 5.70062 16.8685 5.57339Z" fill="#81C3D9"/>
</svg>
