<svg width="80" height="80" viewBox="0 0 80 80" fill="none" xmlns="http://www.w3.org/2000/svg">
<path d="M40 67.3875C39.8125 67.3875 39.525 67.3375 39.275 67.0875L13.3875 41.2125C11.9128 39.7395 10.7439 37.9894 9.94807 36.063C9.15219 34.1366 8.74503 32.0718 8.75 29.9875C8.75 25.75 10.4 21.7625 13.4 18.7625L14.9 17.2625C17.9 14.2625 21.8875 12.6125 26.125 12.6125C30.3625 12.6125 34.35 14.2625 37.35 17.2625L40 19.9125L42.65 17.2625C45.65 14.2625 49.6375 12.6125 53.875 12.6125C58.1125 12.6125 62.1 14.2625 65.1 17.2625L66.6 18.7625C69.6 21.7625 71.25 25.75 71.25 29.9875C71.25 34.225 69.6 38.2125 66.6 41.2125L40.725 67.0875C40.475 67.3375 40.1875 67.3875 40 67.3875Z" fill="#095181"/>
<path d="M74.825 33.2375C75.825 33.5 76.4125 34.525 76.15 35.525C75.1875 39.175 73.25 42.5125 70.575 45.1875L44.7 71.0625C44.0849 71.6828 43.3527 72.1746 42.5458 72.5094C41.7389 72.8442 40.8736 73.0152 40 73.0125C38.225 73.0125 36.5625 72.325 35.3 71.0625L27.5375 63.3125C26.8125 62.575 26.8125 61.3875 27.5375 60.65C28.275 59.925 29.4625 59.925 30.2 60.65L37.95 68.4125C39.05 69.5125 40.95 69.5125 42.05 68.4125L67.925 42.5375C70.1375 40.325 71.725 37.575 72.525 34.5625C72.7875 33.5625 73.8125 32.9625 74.825 33.2375V33.2375ZM75.5 22.4125C75.6632 22.8754 75.6385 23.3838 75.4314 23.8288C75.2243 24.2738 74.8512 24.62 74.3919 24.7932C73.9327 24.9665 73.4238 24.953 72.9744 24.7556C72.525 24.5583 72.1707 24.1928 71.9875 23.7375C71.7875 23.175 71.55 22.625 71.2875 22.1C70.825 21.175 71.2 20.05 72.1375 19.5875C73.0625 19.125 74.1875 19.5125 74.6375 20.4375C74.9625 21.075 75.25 21.7375 75.5 22.4125V22.4125ZM70.575 14.7875C71.3125 15.5125 71.3125 16.7 70.575 17.4375C69.85 18.1625 68.6625 18.1625 67.925 17.4375L66.425 15.9375C59.5125 9.01249 48.25 9.01249 41.325 15.9375C40.5875 16.6625 39.4125 16.6625 38.675 15.9375C31.75 9.01249 20.4875 9.01249 13.575 15.9375L12.075 17.4375C10.4211 19.0813 9.10981 21.037 8.2172 23.1913C7.32459 25.3456 6.86838 27.6556 6.875 29.9875C6.875 34.725 8.725 39.1875 12.075 42.5375L20.4875 50.95C21.2125 51.675 21.2125 52.8625 20.4875 53.6C20.1125 53.9625 19.6375 54.15 19.1625 54.15C18.675 54.15 18.2 53.9625 17.8375 53.6L9.425 45.1875C1.0375 36.8 1.0375 23.1625 9.425 14.7875L10.925 13.2875C18.875 5.33749 31.5625 4.92499 40 12.0625C43.875 8.77499 48.7375 6.98749 53.875 6.98749C59.625 6.98749 65.025 9.22499 69.075 13.2875L70.575 14.7875V14.7875Z" fill="#00ACA6"/>
<path d="M59.2625 38.1875C60.2875 38.1875 61.1375 39.025 61.1375 40.0625C61.1375 41.1 60.2875 41.9375 59.2625 41.9375H47.475L41.6625 53.1375C41.3375 53.7625 40.6875 54.15 40 54.15C39.8875 54.15 39.7875 54.1375 39.675 54.1125C38.8625 53.975 38.25 53.325 38.1375 52.5125L36.2125 37.4875L35.3 40.8625C35.1927 41.261 34.9569 41.6129 34.6292 41.8638C34.3015 42.1147 33.9002 42.2504 33.4875 42.25H23.3375C22.3 42.25 21.4625 41.4 21.4625 40.375C21.4625 39.3375 22.3 38.5 23.3375 38.5H32.0625L35.0625 27.375C35.2875 26.5125 36.1 25.9125 37 25.9875C37.8875 26.05 38.6125 26.7375 38.725 27.625L41.1 46.0875L44.6625 39.2C44.9875 38.5875 45.625 38.1875 46.3375 38.1875H59.2625V38.1875ZM32.3625 74.0125C33.0875 74.75 33.0875 75.9375 32.3625 76.6625C31.9875 77.025 31.5125 77.2125 31.0375 77.2125C30.55 77.2125 30.075 77.025 29.7 76.6625L16.4125 63.375C15.6875 62.6375 15.6875 61.45 16.4125 60.725C16.5857 60.5496 16.7921 60.4104 17.0195 60.3153C17.247 60.2203 17.491 60.1714 17.7375 60.1714C17.984 60.1714 18.228 60.2203 18.4555 60.3153C18.6829 60.4104 18.8893 60.5496 19.0625 60.725L32.3625 74.0125V74.0125ZM25.6375 56.1C26.375 56.8375 26.375 58.025 25.6375 58.75C25.275 59.1125 24.7875 59.3 24.3125 59.3C23.8375 59.3 23.35 59.1125 22.9875 58.75L22.0125 57.775C21.275 57.05 21.275 55.8625 22.0125 55.125C22.75 54.3875 23.925 54.3875 24.6625 55.125L25.6375 56.1V56.1ZM12.975 54.6375C13.7125 55.3625 13.7125 56.55 12.975 57.2875C12.6125 57.65 12.1375 57.8375 11.65 57.8375C11.175 57.8375 10.6875 57.65 10.325 57.2875L8.975 55.925C8.79964 55.7517 8.66041 55.5454 8.56538 55.318C8.47036 55.0905 8.42142 54.8465 8.42142 54.6C8.42142 54.3535 8.47036 54.1094 8.56538 53.882C8.66041 53.6545 8.79964 53.4482 8.975 53.275C9.7 52.55 10.8875 52.55 11.625 53.275L12.975 54.6375Z" fill="#00ACA6"/>
</svg>
