<svg width="64" height="64" viewBox="0 0 64 64" fill="none" xmlns="http://www.w3.org/2000/svg">
<g filter="url(#filter0_d_1_31)">
<path d="M32 4.99C26.6579 4.99 21.4358 6.57411 16.994 9.542C12.5523 12.5099 9.09034 16.7283 7.04602 21.6637C5.00169 26.5992 4.46681 32.03 5.50899 37.2694C6.55118 42.5088 9.12363 47.3215 12.901 51.099C16.6785 54.8764 21.4912 57.4488 26.7306 58.491C31.97 59.5332 37.4009 58.9983 42.3363 56.954C47.2717 54.9097 51.4901 51.4477 54.458 47.006C57.4259 42.5642 59.01 37.3421 59.01 32C59.0026 24.8388 56.1545 17.973 51.0908 12.9092C46.027 7.84548 39.1612 4.99741 32 4.99V4.99ZM32 46C31.234 45.999 30.4855 45.771 29.8491 45.3449C29.2126 44.9187 28.7167 44.3134 28.424 43.6056C28.1313 42.8977 28.055 42.119 28.2047 41.3678C28.3544 40.6166 28.7233 39.9266 29.265 39.385C29.8066 38.8433 30.4966 38.4744 31.2478 38.3247C31.999 38.175 32.7777 38.2513 33.4856 38.544C34.1935 38.8367 34.7987 39.3326 35.2249 39.969C35.651 40.6055 35.879 41.354 35.88 42.12C35.8789 43.1487 35.4698 44.135 34.7424 44.8624C34.015 45.5898 33.0287 45.9989 32 46V46ZM33.35 36.57C33.2272 36.8236 33.0354 37.0375 32.7966 37.1871C32.5579 37.3368 32.2818 37.4162 32 37.4162C31.7182 37.4162 31.4421 37.3368 31.2034 37.1871C30.9646 37.0375 30.7728 36.8236 30.65 36.57C30.5 36.26 26.93 28.93 26.93 23.08C26.93 21.7354 27.4642 20.4458 28.415 19.495C29.3658 18.5442 30.6554 18.01 32 18.01C33.3446 18.01 34.6342 18.5442 35.585 19.495C36.5358 20.4458 37.07 21.7354 37.07 23.08C37.07 28.93 33.5 36.26 33.35 36.57V36.57ZM32.88 42.12C32.882 42.2945 32.8321 42.4656 32.7366 42.6116C32.6411 42.7576 32.5044 42.872 32.3438 42.9401C32.1831 43.0083 32.0059 43.0271 31.8345 42.9943C31.6632 42.9615 31.5054 42.8785 31.3814 42.7558C31.2573 42.6331 31.1725 42.4764 31.1377 42.3054C31.1029 42.1344 31.1198 41.957 31.1861 41.7956C31.2524 41.6342 31.3652 41.4962 31.5101 41.399C31.655 41.3019 31.8255 41.25 32 41.25C32.231 41.252 32.4522 41.344 32.6165 41.5065C32.7808 41.6689 32.8753 41.889 32.88 42.12V42.12ZM34.07 23.08C33.8901 26.1749 33.1903 29.2175 32 32.08C30.8097 29.2175 30.1099 26.1749 29.93 23.08C29.93 22.531 30.1481 22.0045 30.5363 21.6163C30.9245 21.2281 31.451 21.01 32 21.01C32.549 21.01 33.0755 21.2281 33.4637 21.6163C33.8519 22.0045 34.07 22.531 34.07 23.08V23.08Z" fill="#65A077"/>
</g>
<defs>
<filter id="filter0_d_1_31" x="4.98999" y="4.99" width="56.02" height="56.02" filterUnits="userSpaceOnUse" color-interpolation-filters="sRGB">
<feFlood flood-opacity="0" result="BackgroundImageFix"/>
<feColorMatrix in="SourceAlpha" type="matrix" values="0 0 0 0 0 0 0 0 0 0 0 0 0 0 0 0 0 0 127 0" result="hardAlpha"/>
<feOffset dx="1" dy="1"/>
<feGaussianBlur stdDeviation="0.5"/>
<feComposite in2="hardAlpha" operator="out"/>
<feColorMatrix type="matrix" values="0 0 0 0 0 0 0 0 0 0 0 0 0 0 0 0 0 0 0.35 0"/>
<feBlend mode="normal" in2="BackgroundImageFix" result="effect1_dropShadow_1_31"/>
<feBlend mode="normal" in="SourceGraphic" in2="effect1_dropShadow_1_31" result="shape"/>
</filter>
</defs>
</svg>
